<svg width="108" height="54" viewBox="0 0 108 54" fill="none" xmlns="http://www.w3.org/2000/svg"><path d="M19.757 39.491H5.81V7.006h13.947l3.86 4.028v24.429l-3.86 4.028zm-2.947-5.717v-21.05h-4.192v21.05h4.192zM32.39 7.006h-6.808V39.49h6.808V7.006zM49.33 39.49h-9.962l-3.86-4.028V11.034l3.86-4.028h9.962l3.86 4.028v7.58h-6.807v-5.89h-4.068v21.05h4.068v-6.497h6.807v8.186l-3.86 4.028zm5.576 0h6.808v-13.6h.207l4.068 13.6h7.18L67.9 22.382l5.063-15.376H66.03l-4.109 13.167h-.207V7.006h-6.808V39.49zM82.329 7.006v6.237l-2.698 4.201h-2.283l1.66-4.201h-1.66V7.006h4.981zm6.439 32.485h9.962l3.86-4.028V25.024l-3.404-3.811-7.637-2.6v-5.89h4.192v5.068h6.808v-6.757l-3.86-4.028h-9.921l-3.86 4.028v10.179l3.403 3.811 7.638 2.642v6.108h-4.234v-5.285h-6.808v6.974l3.86 4.028zM10.1 49.115H6.769l-1.217-.914v-1.588h2.562v.962h.705v-1.01l-2.114-.443-1.153-.866V42.81l1.217-.914h3.33l1.218.914v1.55H8.754v-.924H8.05v.972l2.114.442 1.153.867V48.2l-1.217.914zm8.084-2.3h-2.027v2.3h-2.534v-7.218h4.561l1.204.914v3.09l-1.204.914zM16.76 43.1v2.406h-.507V43.1h.507zm4.986 6.015l-1.204-.914v-5.39l1.204-.914h3.357l1.204.914v5.39l-1.204.914h-3.357zm1.932-6.015v3.61h-.507V43.1h.507zm8.071 1.203V43.1h-.507v1.203h.507zm-3.136 4.812h2.534v-2.743h.697v2.743h2.534v-2.79l-.887-.675.887-.673V42.81l-1.203-.914h-4.562v7.218zm8.428 0v-5.582h-1.51v-1.636h5.765v1.636h-1.51v5.582H37.04zm7.714-7.218h-2.306v7.218h2.306v-7.218zm2.307 7.218v-7.218h2.506l1.066 3.099h.062v-3.1h2.13v7.22h-2.38l-1.191-3.1h-.063v3.1h-2.13zm9.275 0h3.357l1.204-.914v-3.128h-2.914v1.54h.507v.962h-.824v-4.139h.697v1.156h2.534V42.81l-1.204-.914h-3.357l-1.204.914v5.39l1.204.914zm13.734 0h-3.357l-1.204-.914v-5.39l1.204-.914h3.357l1.204.914v1.78H68.74v-1.154h-.697v4.138h.824v-.962h-.507v-1.54h2.914V48.2l-1.204.914zm2.357-.914l1.204.914h3.358l1.203-.914v-5.39l-1.203-.914H73.63l-1.204.914v5.39zm3.136-1.492V43.1h-.507v3.61h.508zm4.935 1.492l1.204.914h3.358l1.203-.914v-5.39l-1.203-.914h-3.358l-1.204.914v5.39zm3.136-1.492V43.1h-.507v3.61h.507zm4.936 2.406h4.561l1.204-.914v-5.39l-1.204-.914H88.57v7.218zm3.136-2.406V43.1h-.508v3.61h.508zm4.999 2.406h3.331l1.217-.914v-2.483l-1.153-.867-2.114-.442v-.972h.704v.924h2.563v-1.55l-1.217-.914h-3.331l-1.217.914v2.445l1.153.866 2.113.443v1.01h-.704v-.962h-2.562V48.2l1.217.914z" fill="#191F1C"></path><path d="M108 53.956V2.348L.085 2.436 0 54l108-.044z" fill="#006554"></path><path d="M18.946 39.49l4.608-4.568V12.594L18.69 8.068H6.4V39.49h12.546zm-6.187-5.593V14.302h3.03v19.595h-3.03zM25.858 8.068h7.084V39.49h-7.084V8.068zM52.4 20.108h-6.913V13.96h-3.072v19.596h3.072v-7.514H52.4v8.88l-4.694 4.525H40.41l-5.078-4.525V12.594l4.652-4.526h7.723l4.694 4.526v7.514zM61.745 21.474h.085L66.44 8.068h7.296l-6.144 14.644 7.083 16.735h-7.68L61.83 26.042h-.085v13.405h-7.126V8.068h7.126v13.406zM97.802 8.068l4.992 4.526v5.592h-7.083V13.96h-2.945v6.404l5.164.427 4.864 4.568v9.563l-4.651 4.525h-7.851l-4.609-4.525v-5.55h7.083v4.184h2.945V26.98l-5.078-.384-4.95-4.568v-9.435l4.651-4.526h7.468z" fill="#191F1C"></path><path d="M18.562 39.021l4.566-4.568V12.168L18.263 7.6H5.973V39.02h12.589zm-6.23-5.592V13.833h3.03v19.596h-3.03zM25.475 7.6h7.083V39.02h-7.083V7.6zM51.973 19.639H45.06v-6.105h-3.03v19.553h3.03v-7.471h6.913v8.837l-4.651 4.568h-7.34l-5.077-4.568V12.168l4.65-4.568h7.767l4.651 4.568v7.47zM61.318 21.005h.085L66.055 7.6h7.254l-6.145 14.686 7.083 16.735h-7.68l-5.164-13.405h-.085V39.02h-7.083V7.6h7.083v13.405zM97.375 7.6l4.992 4.568v5.55h-7.083v-4.184H92.34v6.361l5.163.47 4.864 4.525v9.563l-4.65 4.568h-7.852l-4.609-4.568v-5.507h7.084v4.141h2.944v-6.575l-5.078-.384-4.95-4.568v-9.392L89.907 7.6h7.468z" fill="#fff"></path><path d="M11.905 42.308l1.792.896v1.11h-2.56v-.811H10.07v1.238l1.878.086 1.75.939v1.878l-1.665.94H9.174l-1.707-.94v-1.11h2.603v.854h1.067v-1.323l-1.835-.086-1.835-.896v-1.879l1.707-.896h2.731zM19.202 42.308l1.75.896.042 2.348-1.75.897h-1.706v2.134h-2.603v-6.275h4.267zm-.726 2.988v-1.793h-.938v1.793h.938zM26.243 42.308l1.75.896h.042v4.44l-1.664.897h-2.902l-1.707-.897v-4.44l1.707-.896h2.774zm-.854 5.08v-3.885h-1.067v3.885h1.067zM33.753 42.308l1.75.896v1.665l-1.281.598 1.28.598v2.518h-2.518v-2.518h-1.066v2.518h-2.603v-6.275h4.438zm-.768 2.561v-1.366h-1.067v1.366h1.067zM41.69 43.503h-1.451v5.08h-2.603v-5.08h-1.45v-1.195h5.504v1.195zM42.5 42.308h2.603v6.275H42.5v-6.275zM52.784 48.583h-2.176l-1.665-3.073h-.042v3.073h-2.433v-6.275h2.177l1.664 3.03h.043v-3.03h2.432v6.275zM60.166 44.656h-2.56v-1.153h-1.238v3.885h1.238v-.896h-.683v-1.196h3.243v2.348l-1.707.94H55.6l-1.792-.94v-4.44l1.707-.896h2.902l1.75.896v1.452zM71.772 44.656H69.17v-1.153h-1.195v3.885h1.195v-.896h-.64v-1.196h3.242v2.348l-1.706.94h-2.86l-1.791-.94v-4.44l1.706-.896h2.902l1.75.896v1.452zM77.32 42.308l1.75.896.042 4.44-1.664.897h-2.902l-1.707-.897v-4.44l1.707-.896h2.774zm-.81 5.08v-3.885h-1.068v3.885h1.067zM84.872 42.308l1.75.896.043 4.44-1.665.897H82.1l-1.707-.897v-4.44l1.707-.896h2.773zm-.853 5.08v-3.885h-1.067v3.885h1.067zM92.425 42.308l1.75.896v4.483l-1.664.896h-4.566v-6.275h4.48zm-.853 5.08v-3.885h-1.067v3.885h1.067zM99.68 42.308l1.791.896v1.11h-2.56v-.811h-1.067v1.238l1.878.086 1.749.939v1.878l-1.664.94h-2.859l-1.706-.94v-1.11h2.602v.854h1.067v-1.323l-1.835-.086-1.834-.896v-1.879l1.706-.896h2.731z" fill="#191F1C"></path><path d="M11.692 42.052l1.792.939v1.11h-2.56v-.854H9.857v1.28l1.878.086 1.749.897v1.921l-1.664.897H8.918l-1.664-.897v-1.11h2.603v.811h1.067V45.81l-1.878-.043-1.792-.896V42.99l1.707-.94h2.73zM18.989 42.052l1.75.896.042 2.348-1.75.897h-1.706v2.135h-2.603v-6.276h4.267zm-.726 2.946v-1.793h-.938v1.793h.938zM26.03 42.095l1.749.896h.042v4.44l-1.664.897h-2.901l-1.707-.897v-4.44l1.707-.896h2.773zm-.854 5.038v-3.886h-1.067v3.886h1.067zM33.496 42.052l1.75.896.043 1.665-1.28.598 1.28.598v2.519H32.77v-2.52h-1.067v2.52h-2.603v-6.276h4.395zm-.725 2.519v-1.366h-1.067v1.366h1.067zM41.476 43.247h-1.45v5.08h-2.604v-5.08h-1.45v-1.195h5.504v1.195zM42.287 42.052h2.603v6.276h-2.603v-6.276zM52.528 48.328h-2.134l-1.664-3.032h-.043v3.032h-2.432v-6.276h2.176l1.665 3.03v-3.03h2.432v6.276zM59.953 44.4H57.35v-1.153h-1.195v3.885h1.195v-.896h-.64v-1.153h3.243v2.348l-1.707.897h-2.86l-1.791-.897v-4.44l1.707-.94h2.901l1.75.94V44.4zM71.56 44.4h-2.604v-1.153h-1.195v3.885h1.195v-.896h-.64v-1.153h3.243v2.348l-1.707.897h-2.859l-1.835-.897v-4.44l1.75-.94h2.902l1.75.94V44.4zM77.106 42.095l1.75.896.042 4.44-1.664.897h-2.901l-1.707-.897v-4.44l1.707-.896h2.773zm-.81 5.038v-3.886h-1.067v3.886h1.067zM84.702 42.095l1.75.896.042 4.44-1.664.897h-2.902l-1.707-.897v-4.44l1.707-.896h2.774zm-.811 5.038v-3.886h-1.067v3.886h1.067zM92.212 42.052l1.75.896h-.043v4.483l-1.665.897H87.69v-6.276h4.523zm-.854 5.038v-3.886h-1.066v3.886h1.066z" fill="#fff"></path><path d="M77.746 19.254c.555-.47.939-.896 1.195-1.324a2.23 2.23 0 00.341-1.195c0-.341-.085-.64-.213-.94l-.427.172c.086.213.17.47.17.725 0 .3-.084.598-.298.94a4.568 4.568 0 01-1.11 1.195l.342.427z" fill="#008D75"></path><path d="M77.448 20.322c.981-.683 1.621-1.238 1.963-1.793.34-.555.469-1.11.469-1.58v-.299l-.47.043v.256c0 .427-.085.854-.383 1.324-.3.47-.854 1.024-1.835 1.665l.256.384z" fill="#008D75"></path><path d="M76.978 21.517a6.148 6.148 0 002.518-1.793c.298-.342.554-.726.725-1.11.17-.342.256-.683.256-1.025v-.128l-.47.043v.085c0 .213-.085.47-.213.811-.213.47-.64.982-1.152 1.494a6.426 6.426 0 01-1.877 1.196l.213.427z" fill="#008D75"></path><path d="M77.618 19.126c.555-.47.939-.896 1.195-1.323.256-.427.341-.812.341-1.196 0-.341-.085-.64-.213-.939l-.427.17c.086.214.171.47.171.726 0 .3-.085.598-.299.94a4.567 4.567 0 01-1.11 1.195l.342.427z" fill="#fff"></path><path d="M77.32 20.193c.98-.683 1.62-1.238 1.962-1.793.342-.555.47-1.11.47-1.58v-.299l-.47.043v.256c0 .427-.085.854-.384 1.324-.298.47-.853 1.024-1.835 1.665l.256.384z" fill="#fff"></path><path d="M76.807 21.346a6.148 6.148 0 002.518-1.793c.299-.342.555-.726.725-1.11.171-.342.256-.683.256-1.025v-.128l-.469.043v.085c0 .214-.085.47-.213.811-.214.47-.64.982-1.152 1.495a6.426 6.426 0 01-1.878 1.195l.213.427zM99.466 42.052l1.792.939v1.11h-2.56v-.854H97.63v1.28l1.877.086 1.75.897v1.921l-1.664.897h-2.902l-1.664-.897v-1.11h2.603v.811h1.067V45.81l-1.878-.043-1.792-.896V42.99l1.707-.94h2.73z" fill="#fff"></path><path d="M81.272 18.45c1.468-.607 2.204-2.29 1.646-3.759-.559-1.468-2.201-2.165-3.669-1.557-1.467.607-2.204 2.29-1.645 3.759.558 1.468 2.2 2.165 3.668 1.558z" fill="#fff"></path><path d="M82.009 16.36c1.796-.745 2.697-2.805 2.014-4.602-.684-1.797-2.694-2.65-4.49-1.906-1.796.744-2.698 2.804-2.014 4.6.683 1.798 2.694 2.651 4.49 1.907z" fill="#fff"></path><path d="M77.448 14.472c.725 1.836 2.859 2.733 4.694 2.007 1.834-.726 2.73-2.86 2.005-4.696-.725-1.836-2.859-2.733-4.694-2.007s-2.73 2.86-2.005 4.696zm.085-.085c-.725-1.793.17-3.8 1.963-4.525a3.512 3.512 0 014.523 1.963c.726 1.793-.17 3.8-1.963 4.526-1.792.726-3.797-.171-4.523-1.964z" fill="#191F1C"></path><path d="M77.448 14.472c.725 1.836 2.859 2.733 4.694 2.007 1.834-.726 2.73-2.86 2.005-4.696-.725-1.836-2.859-2.733-4.694-2.007s-2.73 2.86-2.005 4.696zm.085-.085c-.725-1.793.17-3.8 1.963-4.525a3.512 3.512 0 014.523 1.963c.726 1.793-.17 3.8-1.963 4.526-1.792.726-3.797-.171-4.523-1.964z" fill="#191F1C"></path><path d="M79.368 16.436h-.043c-.042 0-.042-.043 0-.085a2.814 2.814 0 00.384-2.775c-.384-.94-1.195-1.58-2.219-1.75-.042 0-.042-.043-.042-.086s.042-.043.085-.043c1.024.171 1.92.854 2.304 1.836.384.94.214 2.05-.47 2.903 0 0 .044-.043 0 0z" fill="#F8972A"></path><path d="M77.563 12.167h-.058c-.057 0-.057-.043-.057-.085l.346-.598c0-.043.057-.043.115-.043s.058.043.058.086l-.404.64c.058 0 .058 0 0 0zM77.776 12.21h-.057c-.058 0-.058-.043-.058-.085l.346-.598c0-.043.058-.043.115-.043.058 0 .058.043.058.086l-.404.64c.058 0 .058 0 0 0zM77.99 12.252h-.058c-.058 0-.058-.043-.058-.085l.404-.598c0-.043.058-.043.115-.043.058 0 .058.043.058.086l-.461.64c.058 0 .058 0 0 0zM78.246 12.338h-.058c-.058 0-.058-.043-.058-.085l.404-.598c0-.043.057-.043.115-.043s.058.043.058.086l-.461.64zM78.501 12.466h-.057c-.058 0-.058-.043-.058-.085l.404-.598c0-.043.057-.043.115-.043s.058.043.058.086l-.462.64zM78.649 12.636h-.046c-.047 0-.047-.042 0-.085l.415-.555c0-.043.046-.043.092 0 .046 0 .046.043 0 .085l-.461.555c.046 0 .046 0 0 0zM78.856 12.764h-.043c-.042 0-.042-.042 0-.085l.427-.512c0-.043.043-.043.086 0 .042 0 .042.043 0 .085l-.47.512zM79.026 12.963h-.085c-.043-.045 0-.045 0-.09l.512-.492c.043-.045.043 0 .085 0 .043.045 0 .045 0 .09l-.512.492zM79.112 13.195c-.043 0-.043 0-.085-.05v-.1l.555-.451h.085v.1l-.555.501c.043 0 .043 0 0 0zM79.283 13.494c-.043 0-.043 0-.086-.06 0-.06 0-.12.043-.12l.597-.421c.043 0 .086 0 .086.06s0 .12-.043.12l-.597.421zM79.368 13.751c-.043 0-.043 0-.085-.06 0-.06 0-.12.042-.12l.597-.422c.043 0 .086 0 .086.06s0 .12-.043.12l-.597.422s.043 0 0 0zM80.093 13.629l-.64.36c-.042 0-.085 0-.085-.06s0-.12.043-.12l.64-.36c.042 0 .085 0 .085.06s0 .06-.043.12zM80.178 13.885c0 .06 0 .06 0 0l-.64.3c-.042 0-.085 0-.085-.06s0-.12.043-.12l.64-.3c.042 0 .085 0 .085.06 0 .12 0 .12-.043.12zM80.264 14.226l-.683.18c-.043 0-.043 0-.085-.06 0-.06 0-.06.043-.12l.64-.18c.042 0 .042 0 .085.06.043.06 0 .06 0 .12zM80.307 14.482l-.683.12c-.043 0-.043 0-.085-.06 0-.06 0-.06.042-.12l.683-.12c.043 0 .043 0 .085.06 0 .12 0 .12-.042.12zM80.264 14.806h-.683c-.042 0-.042-.06-.042-.06 0-.06.042-.06.042-.06h.683c.043 0 .043.06.043.06s0 .06-.043.06zM80.307 15.2c-.043 0-.043.06 0 0l-.683-.12c-.043 0-.043-.06-.043-.12s.043-.06.086-.06l.682.12c.043 0 .043.06.043.12l-.085.06zM80.221 15.655l-.683-.361c-.042 0-.042-.06-.042-.12s.043-.06.085-.06l.64.36c.043.06.043.06 0 .18.043 0 .043-.06 0 0zM80.136 15.97h-.043l-.597-.42c-.043 0-.043-.06-.043-.12s.043-.06.085-.06l.598.42c.042 0 .042.06 0 .18 0-.06 0-.06 0 0zM79.966 16.194h-.043l-.555-.46c-.043 0-.043-.052 0-.103 0-.051.043-.051.085 0l.555.461s0 .051-.042.102c.042 0 .042 0 0 0zM79.88 16.451h-.043l-.554-.448c-.043 0-.043-.056 0-.111 0-.056.042-.056.085 0l.555.447c-.043 0 0 .056-.043.112zM79.752 16.611h-.043l-.597-.42c-.043 0-.043-.06-.043-.121 0-.06.043-.06.085-.06l.598.42c.043.061.043.121 0 .181 0 0 .043 0 0 0zM84.062 14.558c-1.067-.17-1.92-.854-2.305-1.836a2.96 2.96 0 01.427-2.903c0-.043.043-.043.086 0 .042 0 .042.043 0 .086a2.814 2.814 0 00-.385 2.775c.385.939 1.195 1.58 2.22 1.75.042 0 .042.043.042.085-.043.043-.085.043-.085.043z" fill="#F8972A"></path><path d="M82.483 10.36h-.043l-.597-.36c-.043 0-.043-.06-.043-.12s.043-.06.086-.06l.597.36c.043.06.043.12 0 .18 0 0 .043 0 0 0zM82.355 10.532h-.043l-.597-.361c-.043 0-.043-.06-.043-.12s.043-.06.086-.06l.597.36c.043.06.043.12 0 .18zM82.227 10.745h-.043l-.64-.361c-.043 0-.043-.06-.043-.12s.043-.06.086-.06l.64.36c.042 0 .042.06 0 .18 0 0 .042-.06 0 0zM82.099 10.958h-.043l-.64-.36c-.042 0-.042-.06-.042-.12 0-.061.042-.061.085-.061l.64.36c.043 0 .085.061 0 .181.043 0 .043-.06 0 0zM82.014 11.197l-.683-.3c-.043 0-.043-.06-.043-.121 0-.06.043-.06.086-.06l.64.3c.042.06.042.12 0 .181.042 0 .042 0 0 0zM81.971 11.419l-.683-.18c-.042 0-.042-.061-.042-.121s.042-.06.085-.06l.64.18c.043 0 .043.06 0 .18.043 0 .043-.06 0 0zM81.971 11.657c-.043 0-.043 0 0 0l-.683-.12c-.042 0-.042-.06-.042-.12s.042-.06.085-.06l.683.12c.042 0 .042.06.042.12-.085 0-.085 0-.085.06zM81.971 11.818c-.043 0-.043 0 0 0h-.683c-.042 0-.042-.06-.042-.06 0-.06.042-.06.042-.06h.683c.043 0 .043.06.043.06-.043 0-.043.06-.043.06zM81.971 12.049l-.683.18c-.042 0-.042 0-.085-.06 0-.06 0-.06.043-.12l.64-.18c.042 0 .042 0 .085.06.043.06.043.12 0 .12zM82.014 12.262l-.64.301c-.043 0-.086 0-.086-.06s0-.12.043-.12l.64-.301c.043 0 .085 0 .085.06s0 .12-.042.12zM82.099 12.561l-.64.301c-.043 0-.085 0-.085-.06s0-.12.042-.12l.64-.301c.043 0 .086 0 .086.06s0 .06-.043.12zM81.587 13.135c-.043 0-.086 0-.086-.06s0-.12.043-.12l.597-.361c.043 0 .086 0 .086.06s0 .12-.043.12l-.597.361zM81.715 13.41c-.043 0-.043 0-.085-.061 0-.06 0-.12.042-.12l.598-.421c.042 0 .085 0 .085.06s0 .12-.043.12l-.597.421zM81.886 13.665c-.043 0-.043 0-.086-.055v-.109l.598-.438h.085v.11l-.597.492zM82.014 13.922h-.086v-.11l.555-.492h.085v.11l-.554.492s0-.055 0 0zM82.27 13.988h-.086c-.042-.044 0-.044 0-.09l.512-.491c.043-.045.043 0 .086 0 .042.044 0 .044 0 .09l-.512.491zM82.526 14.26h-.043c-.043 0-.043-.043 0-.086l.427-.512c0-.043.043-.043.085 0 .043 0 .043.043 0 .085l-.47.513zM82.812 14.473h-.058c-.058 0-.058-.043-.058-.086l.404-.597c0-.043.058-.043.115-.043.058 0 .058.043.058.085l-.461.64c.057 0 .057 0 0 0zM83.11 14.6s-.057 0 0 0c-.115 0-.115-.042-.115-.085l.288-.64c0-.043.058-.043.116-.043.057 0 .057.043.057.085l-.346.684zM83.41 14.728c-.116 0-.116-.042-.116-.085l.173-.64c0-.043.058-.043.115-.043.058 0 .058.043.058.085l-.23.683c.057 0 .057 0 0 0zM83.665 14.814s-.058 0 0 0c-.115 0-.115-.042-.115-.085l.23-.64c0-.043.058-.043.116-.043.057 0 .057.043.057.085l-.288.683s.058 0 0 0zM83.836 14.857s-.058 0 0 0c-.115 0-.115-.042-.115-.085l.288-.64c0-.043.057-.043.115-.043s.058.043.058.085l-.346.683c0-.042.057-.042 0 0z" fill="#F8972A"></path><path d="M84.25 12.071c1.405-2.065 1.005-4.879-.892-6.285-1.898-1.406-4.576-.871-5.98 1.194-1.406 2.065-1.007 4.88.891 6.285 1.898 1.406 4.575.872 5.98-1.194z" fill="#fff"></path><path d="M80.861 13.405c.043.043.043.086 0 .086 0 0-.341.47-.597.597-.043 0-.085 0-.085-.042 0-.043 0-.086.042-.086.256-.128.555-.555.555-.555 0-.043.043-.043.085 0zM83.251 13.297s.043.06.043.12-.043.12-.086.12c-.256-.06-.597-.24-.597-.24-.043 0-.043-.06-.043-.12s.043-.06.086-.06c0-.121.298.12.597.18 0-.06 0-.06 0 0zM79.965 12.253l.043.042a.092.092 0 01-.086.086c-.042 0-.81-.043-1.962-.64-.043 0-.043-.043-.043-.086s.043-.043.085-.043c1.152.598 1.92.64 1.963.64-.043 0-.043 0 0 0zM78.813 8.24c.043.042.043.085 0 .127-.939.897-1.28 1.41-1.28 1.41 0 .042-.086.042-.086.042-.042 0-.042-.086-.042-.086 0-.042.341-.555 1.323-1.451 0-.043.042-.043.085-.043zM80.69 8.88c.385 1.494.598 2.262.598 2.262 0 .043 0 .086-.043.086-.042 0-.085 0-.085-.043 0 0-.213-.768-.555-2.22 0-.043 0-.085.043-.085 0-.043.043-.043.043 0zM84.232 10.118c.043.043.043.085 0 .085-.512.812-1.28 1.41-1.323 1.452-.042.043-.085 0-.085 0-.043-.043 0-.085 0-.085s.768-.598 1.28-1.41c.043-.042.085-.042.128-.042zM83.89 8.111c.043 0 .043.043.043.086s-.042.043-.085.043c0 0-1.11-.427-1.963-.598-.042 0-.085-.043-.042-.086 0-.042.042-.085.085-.042.81.17 1.92.597 1.963.597-.043 0-.043 0 0 0zM81.757 5.166c.043.042.043.085 0 .128-.469.299-.768.768-.768.768-.042.043-.085.043-.085 0-.043-.042-.043-.085 0-.085 0 0 .299-.47.81-.811 0-.043 0-.043.043 0zM83.208 5.764c.64.683 1.067 1.622 1.11 1.665 0 .042 0 .085-.043.085s-.085 0-.085-.043c0 0-.427-.982-1.067-1.622-.043-.043-.043-.085 0-.085h.085zM79.026 6.517c.043.046.043.046 0 0 .086.046.086.092.043.137-.043.046-.085.046-.085 0 0 0-.342-.274-1.024-.411-.043 0-.086-.046-.043-.091 0-.046.043-.092.085-.046.598.137.94.32 1.024.411zM77.132 7.343c.057 0 .057.043.057.085-.518.982-.23 1.921-.23 1.921 0 .043 0 .086-.058.086s-.115 0-.115-.043-.288-.982.23-2.006c-.057-.043 0-.086.116-.043 0 0-.058 0 0 0z" fill="#191F1C"></path><path d="M77.448 9.734c-.214-.128-.683-.384-.683-.384-.128.17-.341.384-.341.384.042.896.341 1.793.938 2.561.384-.341.64-.555.64-.555-.469-.982-.554-2.006-.554-2.006zM82.653 13.107s.256-.47.256-1.494c0 0-.64-.086-1.706-.428 0 0-.512.556-1.323 1.153 0 0 .213.555.896 1.196 0-.043.725.085 1.877-.427zM78.728 8.325s.981.256 1.92.64c0 0 .81-.94 1.28-1.366 0 0-.256-1.025-.981-1.622 0 0-1.152.042-1.92.597-.043 0-.385.64-.3 1.75zM84.19 10.203s.341 0 .853.17l.043-.042a4.204 4.204 0 00-.341-2.604c-.043 0-.086-.043-.086-.043s-.299-.17-.427-.256c0 0-.128.299-.426.726-.043 0 .384 1.11.384 2.049z" fill="#191F1C"></path><path d="M84.446 12.082c1.408-1.964.939-4.739-1.067-6.147-2.005-1.41-4.78-.94-6.145 1.067-1.408 1.964-.938 4.739 1.067 6.148 1.963 1.408 4.737.939 6.145-1.068zm-.129-.042c-1.365 1.92-4.053 2.39-5.973 1.024-1.963-1.366-2.39-4.056-1.025-5.977 1.366-1.92 4.054-2.39 5.974-1.024s2.39 4.055 1.024 5.977z" fill="#191F1C"></path><path d="M79.539 10.588a5.292 5.292 0 005.29-5.294A5.293 5.293 0 0079.54 0a5.292 5.292 0 00-5.291 5.294 5.292 5.292 0 005.29 5.294z" fill="#191F1C"></path><path d="M79.624 5.123l1.067-.512c-.427-1.025-.17-1.879.128-2.69.17-.47.299-.939.299-1.409-1.153-.384-2.39-.341-3.585.171l2.091 4.44zM78.344 5.721l1.067-.512L77.32.812c-1.152.555-1.963 1.536-2.432 2.646.384.3.81.47 1.28.64.81.3 1.621.641 2.176 1.623zM82.952 6.49c-.81-.3-1.621-.64-2.176-1.623l-1.067.513L81.8 9.777c1.152-.555 1.963-1.537 2.433-2.647-.385-.299-.811-.47-1.28-.64z" fill="#F8972A"></path><path d="M84.318 6.874a5.091 5.091 0 00-.17-3.629L81.032 4.74c.469.897 1.237 1.196 2.005 1.495.427.17.896.341 1.28.64zM79.496 5.465l-1.067.512c.427 1.025.17 1.879-.128 2.69-.17.47-.299.939-.299 1.409 1.152.384 2.39.341 3.585-.171l-2.091-4.44z" fill="#F8972A"></path><path d="M78.088 8.581c.256-.81.512-1.58.128-2.518l-3.115 1.494c.597 1.152 1.536 2.006 2.688 2.433 0-.512.128-.982.299-1.409zM80.904 4.482l3.115-1.494C83.422 1.835 82.483.982 81.331.555c-.043.47-.17.939-.342 1.366-.213.854-.469 1.622-.085 2.561zM78.088 5.85c-.47-.897-1.237-1.196-2.005-1.495-.427-.17-.897-.341-1.28-.64a5.092 5.092 0 00.17 3.629l3.115-1.495z" fill="#F8972A"></path><defs><clipPath id="dsg-logo-icon_svg__clip0"><path fill="#fff" d="M0 0h108v54H0z"></path></clipPath></defs></svg>